# xmcd
#
# Track frame offsets:
#	150
#	26694
#	44233
#	62516
#	78868
#	98328
#	115684
#	133359
#	153931
#	172177
#	190208
#	206982
#
# Disc length: 3054 seconds
# Revision: 0
# Processed by: cddbd v1.5.2PL0 Copyright (c) Steve Scherf et al.
# Submitted via: dBpowerAMP V12.0
#
DISCID=a50bec0c
DTITLE=Various Artist - The Dreamer/The Believer
DYEAR=2012
DGENRE=Hip Hop
TTITLE0=Common featuring Maya Angelou - The Dreamer
TTITLE1=Common featuring Nas - Ghetto Dreams
TTITLE2=Common - Blue Sky
TTITLE3=Common - Sweet
TTITLE4=Common - Gold
TTITLE5=Common - Lovin' I Lost
TTITLE6=Common - Raw (How You Like It)
TTITLE7=Common - Cloth
TTITLE8=Common - Celebrate
TTITLE9=Common - Windows
TTITLE10=Common featuring John Legend - The Believer
TTITLE11=Common - Pops Belief
EXTD=
EXTT0=
EXTT1=
EXTT2=
EXTT3=
EXTT4=
EXTT5=
EXTT6=
EXTT7=
EXTT8=
EXTT9=
EXTT10=
EXTT11=
PLAYORDER=
